<svg viewBox="0 0 32 32" fill="none" xmlns="http://www.w3.org/2000/svg">
  <defs>
    <linearGradient id="octoGradient" x1="0%" y1="0%" x2="100%" y2="100%">
      <stop offset="0%" stop-color="#7c3aed"/>
      <stop offset="100%" stop-color="#3b82f6"/>
    </linearGradient>
  </defs>
  <rect width="32" height="32" rx="8" fill="url(#octoGradient)"/>
  <path d="M16 6C11.58 6 8 9.58 8 14c0 2.72 1.36 5.1 3.43 6.57V23a1.14 1.14 0 001.14 1.14h1.14v2.29a1.14 1.14 0 001.15 1.14h2.28a1.14 1.14 0 001.15-1.14v-2.29h1.14A1.14 1.14 0 0020.57 23v-2.43C22.64 19.1 24 16.72 24 14c0-4.42-3.58-8-8-8zm-2.29 16h-1.14v-1.14h1.14v1.14zm4.58 0h-1.14v-1.14h1.14v1.14zm1.71-6.4l-.57.39V17.14a1.14 1.14 0 01-1.14 1.15h-4.58a1.14 1.14 0 01-1.14-1.15V16l-.57-.4A5.7 5.7 0 0110.29 14c0-3.16 2.56-5.71 5.71-5.71 3.16 0 5.71 2.55 5.71 5.71a5.7 5.7 0 01-2.71 4.6z" fill="white"/>
  <circle cx="13" cy="13.5" r="1.5" fill="white"/>
  <circle cx="19" cy="13.5" r="1.5" fill="white"/>
</svg>


